# xmcd
#
# Track frame offsets:
#	150
#	19885
#	56167
#	84672
#	99615
#	117877
#	139180
# Disc length: 2715 seconds
# Revision: 6
# Processed by: cddbd v1.5.2PL0 Copyright (c) Steve Scherf et al.
#
# Submitted via: libkcddb 0.31
#
DISCID=5d0a9907
DTITLE=Dave Grusin - N.Y./L.A. Dream Band
DYEAR=1983
DGENRE=Fusion
TTITLE0=Shuffle City
TTITLE1=Count Down
TTITLE2=Serengetti Walk
TTITLE3=What Matters Most (Theme from the Champ)
TTITLE4=Number 8
TTITLE5=Three Days of the Condor
TTITLE6=Summer Sketches '82
EXTD=
EXTT0=Don Grusin
EXTT1=Lee Ritenour
EXTT2=Dave Grusin, Harvey Mason, Louis Johnson
EXTT3=Dave Grusin, Alan Bergman, Marilyn Bergman
EXTT4=Don Grusin
EXTT5=Dave Grusin
EXTT6=Dave Grusin
PLAYORDER=
